<svg width="200" height="200" viewBox="0 0 200 200" fill="none" xmlns="http://www.w3.org/2000/svg">
<g clip-path="url(#clip0_115_406)">
<rect width="200" height="200" rx="20" fill="#ECECEC"/>
<path d="M67 141.1C63.5333 141.1 60.4667 140.467 57.8 139.2C55.1333 137.867 52.9667 135.933 51.3 133.4V140H44.6V77.2C44.6 75.9333 44.4 74.9333 44 74.2C43.6 73.4667 42.7667 72.5667 41.5 71.5L45.9 67.6C47.9 68.7333 49.3 70 50.1 71.4C50.9 72.8 51.3 74.8 51.3 77.4V99.7C53.0333 97.1667 55.2 95.2333 57.8 93.9C60.4667 92.5667 63.5 91.9 66.9 91.9C71.0333 91.9 74.6667 92.8667 77.8 94.8C80.9333 96.6667 83.3333 99.3333 85 102.8C86.7333 106.267 87.6 110.3 87.6 114.9V118.1C87.6 122.7 86.7333 126.733 85 130.2C83.3333 133.667 80.9333 136.367 77.8 138.3C74.7333 140.167 71.1333 141.1 67 141.1ZM65.8 135.7C70.3333 135.7 73.9667 134.1 76.7 130.9C79.4333 127.7 80.8 123.433 80.8 118.1V114.9C80.8 109.567 79.4333 105.3 76.7 102.1C73.9667 98.9 70.3333 97.3 65.8 97.3C61.9333 97.3 58.8333 98.2 56.5 100C54.1667 101.8 52.4333 104.5 51.3 108.1V124.9C52.4333 128.5 54.1667 131.2 56.5 133C58.8333 134.8 61.9333 135.7 65.8 135.7ZM112.541 82.4C111.274 82.4 110.174 81.9333 109.241 81C108.307 80.0667 107.841 78.9667 107.841 77.7C107.841 76.4333 108.307 75.3667 109.241 74.5C110.174 73.5667 111.274 73.1 112.541 73.1C113.807 73.1 114.874 73.5667 115.741 74.5C116.674 75.3667 117.141 76.4333 117.141 77.7C117.141 78.9667 116.674 80.0667 115.741 81C114.874 81.9333 113.807 82.4 112.541 82.4ZM114.541 141.1C112.474 139.967 111.041 138.7 110.241 137.3C109.507 135.833 109.141 133.833 109.141 131.3V93H115.841V131.5C115.841 132.7 116.041 133.7 116.441 134.5C116.907 135.233 117.741 136.1 118.941 137.1L114.541 141.1ZM146.269 98.4V126.4C146.269 132.333 148.869 135.3 154.069 135.3H159.769V140.6H154.069C149.069 140.6 145.402 139.467 143.069 137.2C140.735 134.867 139.569 131.267 139.569 126.4V82.1C139.569 80.9 139.335 79.9333 138.869 79.2C138.469 78.4 137.669 77.5 136.469 76.5L140.969 72.5C142.969 73.6333 144.335 74.9333 145.069 76.4C145.869 77.8 146.269 79.7667 146.269 82.3V93H159.769V98.4H146.269Z" fill="#363636"/>
</g>
<defs>
<clipPath id="clip0_115_406">
<rect width="200" height="200" fill="white"/>
</clipPath>
</defs>
</svg>
