<svg width="200" height="200" viewBox="0 0 200 200" fill="none" xmlns="http://www.w3.org/2000/svg">
<g clip-path="url(#clip0_613_6)">
<rect width="200" height="200" rx="20" fill="#54D761"/>
<path d="M127 121.1C127 127.167 125 131.867 121 135.2C117.067 138.533 111.233 140.467 103.5 141V152H97.9V141.1C92.0333 140.9 87.2333 139.833 83.5 137.9C79.8333 135.967 76.4 132.867 73.2 128.6L79.6 123.1C82.2667 126.767 84.9667 129.4 87.7 131C90.5 132.6 93.9 133.467 97.9 133.6V108.7L95.6 108.2C88.8667 106.867 83.9 104.6 80.7 101.4C77.5 98.2 75.9 93.9667 75.9 88.7C75.9 82.9667 77.8333 78.3667 81.7 74.9C85.6333 71.4333 91.0333 69.4667 97.9 69V58H103.5V69C113.433 69.6 120.6 73.3333 125 80.2L118.6 85.4C116.533 82.7333 114.3 80.6667 111.9 79.2C109.5 77.7333 106.7 76.8333 103.5 76.5V101.2C109.167 102.467 113.667 103.867 117 105.4C120.333 106.933 122.833 108.967 124.5 111.5C126.167 113.967 127 117.167 127 121.1ZM85.4 88.5C85.4 91.4333 86.4333 93.8333 88.5 95.7C90.5667 97.5 93.7 98.9333 97.9 100V76.5C93.9667 76.9667 90.9 78.2667 88.7 80.4C86.5 82.4667 85.4 85.1667 85.4 88.5ZM103.5 133.4C108.1 132.933 111.567 131.667 113.9 129.6C116.3 127.533 117.5 124.733 117.5 121.2C117.5 119.267 117.067 117.633 116.2 116.3C115.4 114.967 114 113.8 112 112.8C110 111.8 107.167 110.833 103.5 109.9V133.4Z" fill="#363636"/>
</g>
<defs>
<clipPath id="clip0_613_6">
<rect width="200" height="200" fill="white"/>
</clipPath>
</defs>
</svg>
