<svg width="958" height="338" viewBox="0 0 958 338" fill="none" xmlns="http://www.w3.org/2000/svg">
<rect width="958" height="338" rx="20" fill="#1C1C1C"/>
<path d="M167.689 108H222.289C237.756 108 249.156 111.067 256.489 117.2C263.956 123.2 267.689 132.667 267.689 145.6C267.689 156.133 265.356 165.333 260.689 173.2C256.022 180.933 249.356 186.867 240.689 191C232.156 195.133 222.156 197.2 210.689 197.2H180.289L171.289 248H143.089L167.689 108ZM213.889 175.2C221.889 175.2 228.156 172.533 232.689 167.2C237.222 161.733 239.489 154.933 239.489 146.8C239.489 135.6 233.622 130 221.889 130H192.089L184.089 175.2H213.889ZM401.628 143C401.628 152.733 398.495 161.2 392.228 168.4C386.095 175.6 377.761 180.333 367.228 182.6C373.761 184.733 378.295 188.667 380.828 194.4C383.361 200.133 385.161 207.733 386.228 217.2L390.028 248H360.228L356.428 217C355.628 210.733 354.628 205.8 353.428 202.2C352.228 198.6 350.161 195.867 347.228 194C344.428 192.133 340.361 191.2 335.028 191.2H314.828L304.828 248H276.628L301.228 108H357.828C371.295 108 381.961 111.133 389.828 117.4C397.695 123.533 401.628 132.067 401.628 143ZM348.428 169.2C355.761 169.2 361.761 167 366.428 162.6C371.095 158.067 373.428 152.267 373.428 145.2C373.428 140.133 371.761 136.333 368.428 133.8C365.095 131.267 360.761 130 355.428 130H325.628L318.628 169.2H348.428ZM443.556 108H471.756L447.156 248H418.956L443.556 108ZM511.666 108H526.266C533.066 108 538.399 108.867 542.266 110.6C546.132 112.2 549.399 115.2 552.066 119.6C554.866 124 557.799 130.8 560.866 140L568.466 163.2L584.066 140C589.799 131.6 594.599 125.267 598.466 121C602.332 116.733 606.666 113.533 611.466 111.4C616.399 109.133 622.532 108 629.866 108H644.466L619.866 248H594.266L613.866 137.4C612.266 137.4 610.732 138.133 609.266 139.6C607.932 141.067 605.932 143.667 603.266 147.4L560.666 206.8L539.266 147.4C537.799 143.533 536.666 140.933 535.866 139.6C535.066 138.133 533.866 137.333 532.266 137.2L512.666 248H487.066L511.666 108ZM703.263 248C688.596 248 677.729 245.333 670.663 240C663.596 234.667 660.063 226.6 660.063 215.8C660.063 211.533 660.396 207.733 661.063 204.4L670.463 151.6C672.863 137.6 678.596 126.867 687.663 119.4C696.729 111.8 710.129 108 727.863 108H774.663L770.863 130H724.063C716.996 130 711.329 131.667 707.063 135C702.929 138.2 700.129 143.733 698.663 151.6L695.863 167H755.463L751.663 189H692.063L689.263 204.4C688.863 206.8 688.663 208.933 688.663 210.8C688.663 216 690.129 219.867 693.063 222.4C696.129 224.8 700.796 226 707.063 226H754.263L750.463 248H703.263Z" fill="#BCBCBC"/>
<rect x="793" y="218" width="30" height="30" rx="5" fill="#BCBCBC"/>
</svg>
