<svg width="259" height="65" viewBox="0 0 259 65" fill="none" xmlns="http://www.w3.org/2000/svg">
<g clip-path="url(#clip0_12_2882)">
<path d="M4.75 17H17.2C20.8667 17 23.7667 17.5667 25.9 18.7C28.0667 19.8333 29.6333 21.6667 30.6 24.2C31.5667 26.7333 32.05 30.1667 32.05 34.5C32.05 38.8667 31.5667 42.3167 30.6 44.85C29.6667 47.35 28.1167 49.1667 25.95 50.3C23.8167 51.4333 20.9 52 17.2 52H4.75V17ZM17.2 49.1C19.9667 49.1 22.1667 48.6333 23.8 47.7C25.4333 46.7333 26.6167 45.2 27.35 43.1C28.0833 40.9667 28.45 38.1167 28.45 34.55C28.45 30.9833 28.0667 28.1333 27.3 26C26.5667 23.8667 25.3833 22.3167 23.75 21.35C22.1167 20.3833 19.9333 19.9 17.2 19.9H8.35V49.1H17.2ZM61.1566 40.75H45.3566L41.9066 52H38.3066L47.3566 22.75C48.09 20.3833 48.8733 18.75 49.7066 17.85C50.5733 16.9167 51.7566 16.45 53.2566 16.45C54.7566 16.45 55.94 16.9167 56.8066 17.85C57.6733 18.75 58.4733 20.3833 59.2066 22.75L68.2566 52H64.6066L61.1566 40.75ZM60.3066 37.95L55.6566 22.8C55.29 21.6667 54.94 20.8833 54.6066 20.45C54.2733 20.0167 53.8233 19.8 53.2566 19.8C52.7233 19.8 52.29 20.0167 51.9566 20.45C51.6233 20.8833 51.2733 21.6667 50.9066 22.8L46.2566 37.95H60.3066ZM81.3852 19.9H70.0352V17H96.3352V19.9H84.9852V52H81.3852V19.9ZM120.952 40.75H105.152L101.702 52H98.1016L107.152 22.75C107.885 20.3833 108.668 18.75 109.502 17.85C110.368 16.9167 111.552 16.45 113.052 16.45C114.552 16.45 115.735 16.9167 116.602 17.85C117.468 18.75 118.268 20.3833 119.002 22.75L128.052 52H124.402L120.952 40.75ZM120.102 37.95L115.452 22.8C115.085 21.6667 114.735 20.8833 114.402 20.45C114.068 20.0167 113.618 19.8 113.052 19.8C112.518 19.8 112.085 20.0167 111.752 20.45C111.418 20.8833 111.068 21.6667 110.702 22.8L106.052 37.95H120.102ZM147.134 52C143.301 52 140.451 51.15 138.584 49.45C136.751 47.7167 135.834 45.0833 135.834 41.55V17H139.434V41.55C139.434 44.1167 140.051 46.0167 141.284 47.25C142.551 48.4833 144.501 49.1 147.134 49.1H158.384V52H147.134ZM168.617 17H172.217V52H168.617V17ZM184.203 27.45C184.203 23.9167 185.136 21.3 187.003 19.6C188.903 17.8667 191.803 17 195.703 17H207.753V19.9H195.703C193.003 19.9 191.003 20.5167 189.703 21.75C188.436 22.9833 187.803 24.8833 187.803 27.45V34.05H205.203V36.95H187.803V52H184.203V27.45ZM228.4 52C224.5 52 221.6 51.15 219.7 49.45C217.833 47.7167 216.9 45.0833 216.9 41.55V27.45C216.9 23.9167 217.833 21.3 219.7 19.6C221.6 17.8667 224.5 17 228.4 17H240.45V19.9H228.4C225.7 19.9 223.7 20.5167 222.4 21.75C221.133 22.9833 220.5 24.8833 220.5 27.45V33.05H237.9V35.95H220.5V41.55C220.5 44.1167 221.133 46.0167 222.4 47.25C223.7 48.4833 225.7 49.1 228.4 49.1H240.75V52H228.4Z" fill="white"/>
<rect x="249" y="42" width="10" height="10" rx="1" fill="white"/>
</g>
<defs>
<clipPath id="clip0_12_2882">
<rect width="259" height="65" fill="white"/>
</clipPath>
</defs>
</svg>
